# xmcd CD database file
#
# Track frame offsets:
#	150
#	21657
#	44285
#
# Disc length: 876 seconds
#
# Revision: 0
# Processed by: cddbd v1.5.1PL0 Copyright (c) Steve Scherf et al.
# Submitted via: CDex 1.51
#
DISCID=22036a03
DTITLE=川崎真理子 - キスをしなくてよかった　"I've been Loving You"
DYEAR=1996
DGENRE=J-POP
TTITLE0=キスをしなくてよかった　"I've been Loving You"
TTITLE1=すきになっただけ　"Love is Simple"
TTITLE2=キスをしなくてよかった　"I've been Loving You" （karaoke）
EXTD=YEAR: 1996
EXTT0=
EXTT1=
EXTT2=
PLAYORDER=
